<svg width="122" height="122" viewBox="0 0 122 122" fill="none" xmlns="http://www.w3.org/2000/svg">
<path d="M33 58V98C33 100.761 35.2386 103 38 103H85C87.7614 103 90 100.761 90 98V58" stroke="black" stroke-width="5" stroke-linecap="round" stroke-linejoin="round"/>
<path d="M97 62L64.8338 23.5792C62.8353 21.1922 59.1647 21.1922 57.1662 23.5792L25 62" stroke="black" stroke-width="5" stroke-linecap="round" stroke-linejoin="round"/>
<path d="M70.693 43.9002C70.0956 43.2986 69.3853 42.8211 68.6028 42.495C67.8202 42.1689 66.981 42.0006 66.1332 42C64.5297 42.0003 62.9847 42.6026 61.8042 43.6878C60.6238 42.6024 59.0788 42.0001 57.4752 42C56.6265 42.0009 55.7863 42.1696 55.003 42.4965C54.2197 42.8233 53.5088 43.3018 52.9111 43.9045C50.3621 46.4644 50.3631 50.4684 52.9133 53.0175L61.8042 61.9084L70.6951 53.0175C73.2453 50.4684 73.2464 46.4644 70.693 43.9002Z" fill="black"/>
<path d="M42.0881 94H37.8949L47.3168 67.8182H51.8807L61.3026 94H57.1094L49.7074 72.5739H49.5028L42.0881 94ZM42.7912 83.7472H56.3935V87.071H42.7912V83.7472ZM65.0835 94V67.8182H74.4158C76.4442 67.8182 78.1275 68.1676 79.4656 68.8665C80.8121 69.5653 81.8178 70.5327 82.4826 71.7685C83.1474 72.9957 83.4798 74.4148 83.4798 76.0256C83.4798 77.6278 83.1431 79.0384 82.4698 80.2571C81.805 81.4673 80.7994 82.4091 79.4528 83.0824C78.1147 83.7557 76.4315 84.0923 74.4031 84.0923H67.3335V80.6918H74.0451C75.3235 80.6918 76.3633 80.5085 77.1644 80.142C77.9741 79.7756 78.5664 79.2429 78.9414 78.544C79.3164 77.8452 79.5039 77.0057 79.5039 76.0256C79.5039 75.0369 79.3121 74.1804 78.9286 73.456C78.5536 72.7315 77.9613 72.1776 77.1516 71.794C76.3505 71.402 75.2979 71.206 73.994 71.206H69.0337V94H65.0835ZM78.0082 82.1875L84.4769 94H79.9769L73.636 82.1875H78.0082Z" fill="black"/>
</svg>
